<mxfile host="app.diagrams.net" agent="Mozilla/5.0 (Windows NT 10.0; Win64; x64) AppleWebKit/537.36 (KHTML, like Gecko) Chrome/133.0.0.0 Safari/537.36 Edg/133.0.0.0" version="26.0.16">
  <diagram name="第 1 页" id="4UG25Fp_B6W0l5dKrZMW">
    <mxGraphModel dx="2503" dy="1194" grid="1" gridSize="10" guides="1" tooltips="1" connect="1" arrows="1" fold="1" page="0" pageScale="1" pageWidth="827" pageHeight="1169" math="0" shadow="0">
      <root>
        <mxCell id="0" />
        <mxCell id="1" parent="0" />
        <mxCell id="oYlRctocb77fKKuBrY3P-28" value="" style="ellipse;whiteSpace=wrap;html=1;aspect=fixed;labelBackgroundColor=#000000;labelBorderColor=default;fontColor=#000000;" parent="1" vertex="1">
          <mxGeometry as="geometry" />
        </mxCell>
        <mxCell id="oYlRctocb77fKKuBrY3P-1" value="&lt;font style=&quot;font-size: 50px;&quot;&gt;A1&lt;/font&gt;" style="triangle;whiteSpace=wrap;html=1;strokeWidth=6;fontColor=#000000;" parent="1" vertex="1">
          <mxGeometry x="295" y="240" width="120" height="160" as="geometry" />
        </mxCell>
        <mxCell id="oYlRctocb77fKKuBrY3P-2" value="" style="endArrow=none;html=1;rounded=0;exitX=0;exitY=0.25;exitDx=0;exitDy=0;strokeWidth=4;fontColor=#000000;" parent="1" source="oYlRctocb77fKKuBrY3P-1" edge="1">
          <mxGeometry width="50" height="50" relative="1" as="geometry">
            <mxPoint x="335" y="360" as="sourcePoint" />
            <mxPoint x="10" y="280" as="targetPoint" />
          </mxGeometry>
        </mxCell>
        <mxCell id="oYlRctocb77fKKuBrY3P-3" value="" style="endArrow=none;html=1;rounded=0;exitX=0;exitY=0.75;exitDx=0;exitDy=0;strokeWidth=4;fontColor=#000000;" parent="1" source="oYlRctocb77fKKuBrY3P-1" edge="1">
          <mxGeometry width="50" height="50" relative="1" as="geometry">
            <mxPoint x="315" y="360" as="sourcePoint" />
            <mxPoint x="90" y="360" as="targetPoint" />
          </mxGeometry>
        </mxCell>
        <mxCell id="oYlRctocb77fKKuBrY3P-4" value="" style="endArrow=none;html=1;rounded=0;entryX=1;entryY=0.5;entryDx=0;entryDy=0;strokeWidth=4;fontColor=#000000;" parent="1" target="oYlRctocb77fKKuBrY3P-1" edge="1">
          <mxGeometry width="50" height="50" relative="1" as="geometry">
            <mxPoint x="475" y="320" as="sourcePoint" />
            <mxPoint x="275" y="380" as="targetPoint" />
          </mxGeometry>
        </mxCell>
        <mxCell id="oYlRctocb77fKKuBrY3P-5" value="&lt;font style=&quot;font-size: 50px;&quot;&gt;+&lt;/font&gt;" style="text;html=1;align=center;verticalAlign=middle;resizable=0;points=[];autosize=1;strokeColor=none;fillColor=none;strokeWidth=4;fontColor=#000000;" parent="1" vertex="1">
          <mxGeometry x="245" y="225" width="50" height="70" as="geometry" />
        </mxCell>
        <mxCell id="oYlRctocb77fKKuBrY3P-6" value="&lt;font style=&quot;font-size: 50px;&quot;&gt;-&lt;/font&gt;" style="text;html=1;align=center;verticalAlign=middle;resizable=0;points=[];autosize=1;strokeColor=none;fillColor=none;strokeWidth=4;fontColor=#000000;" parent="1" vertex="1">
          <mxGeometry x="250" y="345" width="40" height="70" as="geometry" />
        </mxCell>
        <mxCell id="oYlRctocb77fKKuBrY3P-13" value="&lt;font style=&quot;font-size: 50px;&quot;&gt;A2&lt;/font&gt;" style="triangle;whiteSpace=wrap;html=1;strokeWidth=6;fontColor=#000000;" parent="1" vertex="1">
          <mxGeometry x="295" y="560" width="120" height="160" as="geometry" />
        </mxCell>
        <mxCell id="oYlRctocb77fKKuBrY3P-14" value="" style="endArrow=none;html=1;rounded=0;exitX=0;exitY=0.25;exitDx=0;exitDy=0;strokeWidth=4;fontColor=#000000;" parent="1" source="oYlRctocb77fKKuBrY3P-13" edge="1">
          <mxGeometry width="50" height="50" relative="1" as="geometry">
            <mxPoint x="335" y="680" as="sourcePoint" />
            <mxPoint x="195" y="600" as="targetPoint" />
          </mxGeometry>
        </mxCell>
        <mxCell id="oYlRctocb77fKKuBrY3P-15" value="" style="endArrow=none;html=1;rounded=0;exitX=0;exitY=0.5;exitDx=0;exitDy=0;strokeWidth=4;fontColor=#000000;entryX=0;entryY=0.5;entryDx=0;entryDy=0;strokeColor=#000000;" parent="1" source="9ELfS6WFHughq5BFfpC6-15" target="rsWcSZFI2ZlMxmA-CvCg-13" edge="1">
          <mxGeometry width="50" height="50" relative="1" as="geometry">
            <mxPoint x="315" y="680" as="sourcePoint" />
            <mxPoint x="-60" y="680" as="targetPoint" />
          </mxGeometry>
        </mxCell>
        <mxCell id="oYlRctocb77fKKuBrY3P-16" value="" style="endArrow=none;html=1;rounded=0;entryX=1;entryY=0.5;entryDx=0;entryDy=0;strokeWidth=4;fontColor=#000000;" parent="1" target="oYlRctocb77fKKuBrY3P-13" edge="1">
          <mxGeometry width="50" height="50" relative="1" as="geometry">
            <mxPoint x="475" y="640" as="sourcePoint" />
            <mxPoint x="275" y="700" as="targetPoint" />
          </mxGeometry>
        </mxCell>
        <mxCell id="oYlRctocb77fKKuBrY3P-19" value="" style="rounded=0;whiteSpace=wrap;html=1;direction=south;strokeWidth=6;fontColor=#000000;" parent="1" vertex="1">
          <mxGeometry x="175" y="160" width="40" height="80" as="geometry" />
        </mxCell>
        <mxCell id="oYlRctocb77fKKuBrY3P-20" value="" style="rounded=0;whiteSpace=wrap;html=1;direction=south;fontStyle=1;strokeWidth=6;fontColor=#000000;" parent="1" vertex="1">
          <mxGeometry x="175" y="440" width="40" height="80" as="geometry" />
        </mxCell>
        <mxCell id="oYlRctocb77fKKuBrY3P-21" value="" style="rounded=0;whiteSpace=wrap;html=1;direction=south;strokeWidth=6;fontColor=#000000;" parent="1" vertex="1">
          <mxGeometry x="175" y="720" width="40" height="80" as="geometry" />
        </mxCell>
        <mxCell id="oYlRctocb77fKKuBrY3P-26" value="" style="endArrow=none;html=1;rounded=0;entryX=1;entryY=0.5;entryDx=0;entryDy=0;exitX=0;exitY=0.5;exitDx=0;exitDy=0;strokeWidth=4;fontColor=#000000;" parent="1" source="oYlRctocb77fKKuBrY3P-20" target="oYlRctocb77fKKuBrY3P-19" edge="1">
          <mxGeometry width="50" height="50" relative="1" as="geometry">
            <mxPoint x="355" y="380" as="sourcePoint" />
            <mxPoint x="455" y="280" as="targetPoint" />
          </mxGeometry>
        </mxCell>
        <mxCell id="oYlRctocb77fKKuBrY3P-27" value="" style="endArrow=none;html=1;rounded=0;entryX=1;entryY=0.5;entryDx=0;entryDy=0;exitX=0;exitY=0.5;exitDx=0;exitDy=0;strokeWidth=4;fontColor=#000000;" parent="1" source="oYlRctocb77fKKuBrY3P-21" target="oYlRctocb77fKKuBrY3P-20" edge="1">
          <mxGeometry width="50" height="50" relative="1" as="geometry">
            <mxPoint x="215" y="460" as="sourcePoint" />
            <mxPoint x="215" y="260" as="targetPoint" />
          </mxGeometry>
        </mxCell>
        <mxCell id="oYlRctocb77fKKuBrY3P-35" value="" style="ellipse;whiteSpace=wrap;html=1;aspect=fixed;fillColor=#000000;strokeWidth=4;strokeColor=none;fontColor=#000000;" parent="1" vertex="1">
          <mxGeometry x="185" y="350" width="20" height="20" as="geometry" />
        </mxCell>
        <mxCell id="oYlRctocb77fKKuBrY3P-44" value="" style="ellipse;whiteSpace=wrap;html=1;aspect=fixed;fillColor=#000000;strokeWidth=4;strokeColor=none;fontColor=#000000;" parent="1" vertex="1">
          <mxGeometry x="185" y="590" width="20" height="20" as="geometry" />
        </mxCell>
        <mxCell id="oYlRctocb77fKKuBrY3P-49" value="&lt;font style=&quot;font-size: 50px;&quot;&gt;触&lt;br&gt;发&lt;br&gt;器&lt;/font&gt;" style="rounded=0;whiteSpace=wrap;html=1;direction=south;strokeWidth=6;fontColor=#000000;" parent="1" vertex="1">
          <mxGeometry x="475" y="235" width="120" height="485" as="geometry" />
        </mxCell>
        <mxCell id="oYlRctocb77fKKuBrY3P-50" value="&lt;font style=&quot;font-size: 50px;&quot;&gt;+&lt;/font&gt;" style="text;html=1;align=center;verticalAlign=middle;resizable=0;points=[];autosize=1;strokeColor=none;fillColor=none;strokeWidth=4;fontColor=#000000;" parent="1" vertex="1">
          <mxGeometry x="245" y="540" width="50" height="70" as="geometry" />
        </mxCell>
        <mxCell id="oYlRctocb77fKKuBrY3P-51" value="&lt;font style=&quot;font-size: 50px;&quot;&gt;-&lt;/font&gt;" style="text;html=1;align=center;verticalAlign=middle;resizable=0;points=[];autosize=1;strokeColor=none;fillColor=none;strokeWidth=4;fontColor=#000000;" parent="1" vertex="1">
          <mxGeometry x="250" y="660" width="40" height="70" as="geometry" />
        </mxCell>
        <mxCell id="oYlRctocb77fKKuBrY3P-52" value="" style="endArrow=none;html=1;rounded=0;entryX=0;entryY=0.5;entryDx=0;entryDy=0;strokeWidth=4;fontColor=#000000;exitX=0.5;exitY=1;exitDx=0;exitDy=0;" parent="1" target="oYlRctocb77fKKuBrY3P-49" edge="1" source="-57o9uocHF-z8NXYsJxn-1">
          <mxGeometry width="50" height="50" relative="1" as="geometry">
            <mxPoint x="535" y="100" as="sourcePoint" />
            <mxPoint x="415" y="380" as="targetPoint" />
          </mxGeometry>
        </mxCell>
        <mxCell id="oYlRctocb77fKKuBrY3P-53" value="" style="endArrow=none;html=1;rounded=0;entryX=0;entryY=0.5;entryDx=0;entryDy=0;strokeWidth=4;fontColor=#000000;" parent="1" source="9ELfS6WFHughq5BFfpC6-5" target="oYlRctocb77fKKuBrY3P-19" edge="1">
          <mxGeometry width="50" height="50" relative="1" as="geometry">
            <mxPoint x="195" y="80" as="sourcePoint" />
            <mxPoint x="415" y="380" as="targetPoint" />
          </mxGeometry>
        </mxCell>
        <mxCell id="oYlRctocb77fKKuBrY3P-54" value="" style="endArrow=none;html=1;rounded=0;strokeWidth=4;fontColor=#000000;strokeColor=#0000FF;exitX=0;exitY=0.5;exitDx=0;exitDy=0;entryX=0.176;entryY=-0.014;entryDx=0;entryDy=0;entryPerimeter=0;" parent="1" target="oYlRctocb77fKKuBrY3P-49" edge="1" source="-57o9uocHF-z8NXYsJxn-11">
          <mxGeometry width="50" height="50" relative="1" as="geometry">
            <mxPoint x="860" y="334.58" as="sourcePoint" />
            <mxPoint x="620" y="320" as="targetPoint" />
          </mxGeometry>
        </mxCell>
        <mxCell id="oYlRctocb77fKKuBrY3P-55" value="" style="endArrow=none;html=1;rounded=0;entryX=0.837;entryY=0;entryDx=0;entryDy=0;entryPerimeter=0;strokeWidth=4;fontColor=#000000;" parent="1" target="oYlRctocb77fKKuBrY3P-49" edge="1">
          <mxGeometry width="50" height="50" relative="1" as="geometry">
            <mxPoint x="680" y="641" as="sourcePoint" />
            <mxPoint x="605.0000000000001" y="635.0649999999999" as="targetPoint" />
          </mxGeometry>
        </mxCell>
        <mxCell id="oYlRctocb77fKKuBrY3P-56" value="" style="endArrow=none;html=1;rounded=0;strokeWidth=4;fontColor=#000000;" parent="1" edge="1">
          <mxGeometry width="50" height="50" relative="1" as="geometry">
            <mxPoint x="680" y="940" as="sourcePoint" />
            <mxPoint x="680" y="640" as="targetPoint" />
          </mxGeometry>
        </mxCell>
        <mxCell id="oYlRctocb77fKKuBrY3P-57" value="" style="endArrow=none;html=1;rounded=0;strokeWidth=4;entryX=1;entryY=0.5;entryDx=0;entryDy=0;fontColor=#000000;" parent="1" target="eyqNCUY_SEGoPxI6-TQl-1" edge="1">
          <mxGeometry width="50" height="50" relative="1" as="geometry">
            <mxPoint x="395" y="941" as="sourcePoint" />
            <mxPoint x="480" y="941" as="targetPoint" />
          </mxGeometry>
        </mxCell>
        <mxCell id="oYlRctocb77fKKuBrY3P-58" value="" style="endArrow=none;html=1;rounded=0;strokeWidth=6;fontColor=#000000;" parent="1" edge="1">
          <mxGeometry width="50" height="50" relative="1" as="geometry">
            <mxPoint x="395" y="981" as="sourcePoint" />
            <mxPoint x="395" y="901" as="targetPoint" />
          </mxGeometry>
        </mxCell>
        <mxCell id="oYlRctocb77fKKuBrY3P-59" value="" style="endArrow=none;html=1;rounded=0;strokeWidth=4;fontColor=#000000;" parent="1" edge="1">
          <mxGeometry width="50" height="50" relative="1" as="geometry">
            <mxPoint x="395" y="921" as="sourcePoint" />
            <mxPoint x="355" y="901" as="targetPoint" />
          </mxGeometry>
        </mxCell>
        <mxCell id="oYlRctocb77fKKuBrY3P-61" value="" style="endArrow=classic;html=1;rounded=0;strokeWidth=4;fontColor=#000000;" parent="1" edge="1">
          <mxGeometry width="50" height="50" relative="1" as="geometry">
            <mxPoint x="395" y="961" as="sourcePoint" />
            <mxPoint x="355" y="981" as="targetPoint" />
          </mxGeometry>
        </mxCell>
        <mxCell id="oYlRctocb77fKKuBrY3P-62" value="" style="endArrow=none;html=1;rounded=0;strokeWidth=4;fontColor=#000000;" parent="1" edge="1">
          <mxGeometry width="50" height="50" relative="1" as="geometry">
            <mxPoint x="355" y="902" as="sourcePoint" />
            <mxPoint x="355" y="882" as="targetPoint" />
          </mxGeometry>
        </mxCell>
        <mxCell id="oYlRctocb77fKKuBrY3P-63" value="" style="endArrow=none;html=1;rounded=0;strokeWidth=4;fontColor=#000000;entryX=0.5;entryY=0;entryDx=0;entryDy=0;" parent="1" edge="1" target="-57o9uocHF-z8NXYsJxn-25">
          <mxGeometry width="50" height="50" relative="1" as="geometry">
            <mxPoint x="355" y="981" as="sourcePoint" />
            <mxPoint x="355" y="1001" as="targetPoint" />
          </mxGeometry>
        </mxCell>
        <mxCell id="oYlRctocb77fKKuBrY3P-64" value="" style="endArrow=none;html=1;rounded=0;strokeWidth=4;fontColor=#000000;exitX=0;exitY=0.5;exitDx=0;exitDy=0;" parent="1" edge="1" source="-57o9uocHF-z8NXYsJxn-25">
          <mxGeometry width="50" height="50" relative="1" as="geometry">
            <mxPoint x="355" y="1001" as="sourcePoint" />
            <mxPoint x="10" y="1001" as="targetPoint" />
          </mxGeometry>
        </mxCell>
        <mxCell id="oYlRctocb77fKKuBrY3P-65" value="" style="endArrow=none;html=1;rounded=0;strokeWidth=4;fontColor=#000000;strokeColor=#000000;" parent="1" edge="1">
          <mxGeometry width="50" height="50" relative="1" as="geometry">
            <mxPoint x="356" y="881" as="sourcePoint" />
            <mxPoint x="-241" y="880" as="targetPoint" />
          </mxGeometry>
        </mxCell>
        <mxCell id="oYlRctocb77fKKuBrY3P-66" value="" style="endArrow=none;html=1;rounded=0;entryX=1;entryY=0.5;entryDx=0;entryDy=0;strokeWidth=4;fontColor=#000000;" parent="1" source="oYlRctocb77fKKuBrY3P-43" target="oYlRctocb77fKKuBrY3P-21" edge="1">
          <mxGeometry width="50" height="50" relative="1" as="geometry">
            <mxPoint x="195" y="1020" as="sourcePoint" />
            <mxPoint x="375" y="810" as="targetPoint" />
          </mxGeometry>
        </mxCell>
        <mxCell id="oYlRctocb77fKKuBrY3P-68" value="" style="endArrow=none;html=1;rounded=0;entryX=1;entryY=0.5;entryDx=0;entryDy=0;strokeWidth=4;fontColor=#000000;" parent="1" target="oYlRctocb77fKKuBrY3P-43" edge="1">
          <mxGeometry width="50" height="50" relative="1" as="geometry">
            <mxPoint x="195" y="1001" as="sourcePoint" />
            <mxPoint x="195" y="781" as="targetPoint" />
          </mxGeometry>
        </mxCell>
        <mxCell id="oYlRctocb77fKKuBrY3P-43" value="" style="ellipse;whiteSpace=wrap;html=1;aspect=fixed;fillColor=#000000;strokeWidth=4;strokeColor=none;fontColor=#000000;" parent="1" vertex="1">
          <mxGeometry x="185" y="991" width="20" height="20" as="geometry" />
        </mxCell>
        <mxCell id="oYlRctocb77fKKuBrY3P-69" value="&lt;font style=&quot;font-size: 50px;&quot;&gt;6&lt;/font&gt;" style="text;html=1;align=center;verticalAlign=middle;resizable=0;points=[];autosize=1;strokeColor=default;fillColor=none;rounded=1;fontStyle=1;strokeWidth=4;dashed=1;opacity=50;shadow=1;glass=1;dashPattern=1 1;fontColor=#000000;" parent="1" vertex="1">
          <mxGeometry x="-50" y="240" width="50" height="70" as="geometry" />
        </mxCell>
        <mxCell id="oYlRctocb77fKKuBrY3P-70" value="&lt;font style=&quot;font-size: 50px;&quot;&gt;&lt;b&gt;5&lt;/b&gt;&lt;/font&gt;" style="text;html=1;align=center;verticalAlign=middle;resizable=0;points=[];autosize=1;strokeColor=default;fillColor=none;strokeWidth=4;dashed=1;opacity=50;rounded=1;shadow=1;glass=1;dashPattern=1 1;fontColor=#000000;" parent="1" vertex="1">
          <mxGeometry x="105" y="370" width="50" height="70" as="geometry" />
        </mxCell>
        <mxCell id="oYlRctocb77fKKuBrY3P-71" value="&lt;font style=&quot;font-size: 50px;&quot;&gt;&lt;b&gt;2&lt;/b&gt;&lt;/font&gt;" style="text;html=1;align=center;verticalAlign=middle;resizable=0;points=[];autosize=1;strokeColor=default;fillColor=none;strokeWidth=4;dashed=1;opacity=50;rounded=1;shadow=1;glass=1;dashPattern=1 1;fontColor=#000000;" parent="1" vertex="1">
          <mxGeometry x="-50" y="590" width="50" height="70" as="geometry" />
        </mxCell>
        <mxCell id="oYlRctocb77fKKuBrY3P-72" value="&lt;font style=&quot;font-size: 50px;&quot;&gt;&lt;b&gt;7&lt;/b&gt;&lt;/font&gt;" style="text;html=1;align=center;verticalAlign=middle;resizable=0;points=[];autosize=1;strokeColor=default;fillColor=none;strokeWidth=4;dashed=1;opacity=50;rounded=1;shadow=1;glass=1;dashPattern=1 1;fontColor=#000000;" parent="1" vertex="1">
          <mxGeometry x="290" y="800" width="50" height="70" as="geometry" />
        </mxCell>
        <mxCell id="oYlRctocb77fKKuBrY3P-73" value="&lt;font style=&quot;font-size: 50px;&quot;&gt;&lt;b&gt;1&lt;/b&gt;&lt;/font&gt;" style="text;html=1;align=center;verticalAlign=middle;resizable=0;points=[];autosize=1;strokeColor=default;fillColor=none;strokeWidth=4;dashed=1;opacity=50;rounded=1;shadow=1;glass=1;dashPattern=1 1;fontColor=#000000;" parent="1" vertex="1">
          <mxGeometry x="290" y="921" width="50" height="70" as="geometry" />
        </mxCell>
        <mxCell id="oYlRctocb77fKKuBrY3P-74" value="&lt;font style=&quot;font-size: 50px;&quot;&gt;R&lt;sub&gt;t&lt;/sub&gt;&lt;/font&gt;" style="text;html=1;align=center;verticalAlign=middle;resizable=0;points=[];autosize=1;strokeColor=none;fillColor=none;strokeWidth=4;fontColor=#000000;" parent="1" vertex="1">
          <mxGeometry x="105" y="155" width="70" height="80" as="geometry" />
        </mxCell>
        <mxCell id="oYlRctocb77fKKuBrY3P-77" value="&lt;font style=&quot;font-size: 50px;&quot;&gt;R&lt;/font&gt;" style="text;html=1;align=center;verticalAlign=middle;resizable=0;points=[];autosize=1;strokeColor=none;fillColor=none;strokeWidth=4;fontColor=#000000;" parent="1" vertex="1">
          <mxGeometry x="405" y="238" width="60" height="70" as="geometry" />
        </mxCell>
        <mxCell id="oYlRctocb77fKKuBrY3P-78" value="&lt;span style=&quot;font-size: 50px;&quot;&gt;S&lt;/span&gt;" style="text;html=1;align=center;verticalAlign=middle;resizable=0;points=[];autosize=1;strokeColor=none;fillColor=none;strokeWidth=4;fontColor=#000000;" parent="1" vertex="1">
          <mxGeometry x="405" y="565" width="60" height="70" as="geometry" />
        </mxCell>
        <mxCell id="oYlRctocb77fKKuBrY3P-79" value="&lt;span style=&quot;font-size: 50px;&quot;&gt;Q&lt;/span&gt;" style="text;html=1;align=center;verticalAlign=middle;resizable=0;points=[];autosize=1;strokeColor=none;fillColor=none;strokeWidth=4;fontColor=#000000;" parent="1" vertex="1">
          <mxGeometry x="605" y="240" width="60" height="70" as="geometry" />
        </mxCell>
        <mxCell id="oYlRctocb77fKKuBrY3P-80" value="&lt;font style=&quot;font-size: 50px;&quot;&gt;Q&lt;/font&gt;" style="text;html=1;align=center;verticalAlign=middle;resizable=0;points=[];autosize=1;strokeColor=none;fillColor=none;strokeWidth=4;fontColor=#000000;" parent="1" vertex="1">
          <mxGeometry x="605" y="565" width="60" height="70" as="geometry" />
        </mxCell>
        <mxCell id="oYlRctocb77fKKuBrY3P-81" value="" style="endArrow=none;html=1;rounded=0;strokeWidth=4;fontColor=#000000;" parent="1" edge="1">
          <mxGeometry width="50" height="50" relative="1" as="geometry">
            <mxPoint x="655" y="570" as="sourcePoint" />
            <mxPoint x="615" y="570" as="targetPoint" />
          </mxGeometry>
        </mxCell>
        <mxCell id="oYlRctocb77fKKuBrY3P-82" value="&lt;span style=&quot;font-size: 50px;&quot;&gt;T&lt;/span&gt;" style="text;html=1;align=center;verticalAlign=middle;resizable=0;points=[];autosize=1;strokeColor=none;fillColor=none;strokeWidth=4;fontColor=#000000;" parent="1" vertex="1">
          <mxGeometry x="410" y="881" width="50" height="70" as="geometry" />
        </mxCell>
        <mxCell id="oYlRctocb77fKKuBrY3P-83" value="&lt;font style=&quot;font-size: 50px;&quot;&gt;8&lt;/font&gt;" style="text;html=1;align=center;verticalAlign=middle;resizable=0;points=[];autosize=1;strokeColor=default;fillColor=none;rounded=1;fontStyle=1;strokeWidth=4;dashed=1;opacity=50;shadow=1;glass=1;dashPattern=1 1;fontColor=#000000;" parent="1" vertex="1">
          <mxGeometry x="230" y="90" width="50" height="70" as="geometry" />
        </mxCell>
        <mxCell id="oYlRctocb77fKKuBrY3P-86" value="&lt;font style=&quot;font-size: 50px;&quot;&gt;4&lt;/font&gt;" style="text;html=1;align=center;verticalAlign=middle;resizable=0;points=[];autosize=1;strokeColor=default;fillColor=none;rounded=1;fontStyle=1;strokeWidth=4;dashed=1;opacity=50;shadow=1;glass=1;dashPattern=1 1;fontColor=#000000;" parent="1" vertex="1">
          <mxGeometry x="555" y="90" width="50" height="70" as="geometry" />
        </mxCell>
        <mxCell id="oYlRctocb77fKKuBrY3P-87" value="&lt;font style=&quot;font-size: 50px;&quot;&gt;3&lt;/font&gt;" style="text;html=1;align=center;verticalAlign=middle;resizable=0;points=[];autosize=1;strokeColor=default;fillColor=none;rounded=1;fontStyle=1;strokeWidth=4;dashed=1;opacity=50;shadow=1;glass=1;dashPattern=1 1;fontColor=#000000;" parent="1" vertex="1">
          <mxGeometry x="631" y="345" width="50" height="70" as="geometry" />
        </mxCell>
        <mxCell id="eyqNCUY_SEGoPxI6-TQl-1" value="" style="rounded=0;whiteSpace=wrap;html=1;direction=west;strokeWidth=6;fontColor=#000000;" parent="1" vertex="1">
          <mxGeometry x="505" y="921" width="80" height="40" as="geometry" />
        </mxCell>
        <mxCell id="eyqNCUY_SEGoPxI6-TQl-2" value="" style="endArrow=none;html=1;rounded=0;strokeWidth=4;exitX=0;exitY=0.5;exitDx=0;exitDy=0;fontColor=#000000;" parent="1" source="eyqNCUY_SEGoPxI6-TQl-1" edge="1">
          <mxGeometry width="50" height="50" relative="1" as="geometry">
            <mxPoint x="405" y="951" as="sourcePoint" />
            <mxPoint x="680" y="940" as="targetPoint" />
          </mxGeometry>
        </mxCell>
        <mxCell id="eyqNCUY_SEGoPxI6-TQl-3" value="&lt;span style=&quot;font-size: 50px;&quot;&gt;R&lt;sub&gt;p&lt;/sub&gt;&lt;/span&gt;" style="text;html=1;align=center;verticalAlign=middle;resizable=0;points=[];autosize=1;strokeColor=none;fillColor=none;strokeWidth=4;fontColor=#000000;" parent="1" vertex="1">
          <mxGeometry x="505" y="835" width="80" height="80" as="geometry" />
        </mxCell>
        <mxCell id="9ELfS6WFHughq5BFfpC6-4" value="" style="endArrow=none;html=1;rounded=0;strokeWidth=4;strokeColor=#000000;fontColor=#000000;exitX=0;exitY=0.5;exitDx=0;exitDy=0;" parent="1" target="9ELfS6WFHughq5BFfpC6-5" edge="1" source="-57o9uocHF-z8NXYsJxn-1">
          <mxGeometry width="50" height="50" relative="1" as="geometry">
            <mxPoint x="520" y="60" as="sourcePoint" />
            <mxPoint x="12" y="80" as="targetPoint" />
          </mxGeometry>
        </mxCell>
        <mxCell id="9ELfS6WFHughq5BFfpC6-6" value="" style="endArrow=none;html=1;rounded=0;entryX=0;entryY=0.5;entryDx=0;entryDy=0;strokeWidth=4;fontColor=#000000;" parent="1" target="9ELfS6WFHughq5BFfpC6-5" edge="1">
          <mxGeometry width="50" height="50" relative="1" as="geometry">
            <mxPoint x="195" y="80" as="sourcePoint" />
            <mxPoint x="195" y="160" as="targetPoint" />
          </mxGeometry>
        </mxCell>
        <mxCell id="9ELfS6WFHughq5BFfpC6-5" value="" style="ellipse;whiteSpace=wrap;html=1;aspect=fixed;fillColor=#000000;strokeWidth=4;strokeColor=none;fontColor=#000000;" parent="1" vertex="1">
          <mxGeometry x="185" y="70" width="20" height="20" as="geometry" />
        </mxCell>
        <mxCell id="9ELfS6WFHughq5BFfpC6-11" value="" style="ellipse;whiteSpace=wrap;html=1;aspect=fixed;fillColor=#000000;strokeWidth=4;strokeColor=none;fontColor=#000000;" parent="1" vertex="1">
          <mxGeometry x="80" y="991" width="20" height="20" as="geometry" />
        </mxCell>
        <mxCell id="9ELfS6WFHughq5BFfpC6-14" value="" style="endArrow=none;html=1;rounded=0;strokeWidth=4;strokeColor=#000000;fontColor=#000000;" parent="1" edge="1">
          <mxGeometry width="50" height="50" relative="1" as="geometry">
            <mxPoint x="12" y="678" as="sourcePoint" />
            <mxPoint x="12" y="278" as="targetPoint" />
          </mxGeometry>
        </mxCell>
        <mxCell id="9ELfS6WFHughq5BFfpC6-19" value="" style="endArrow=none;html=1;rounded=0;exitX=0;exitY=0.75;exitDx=0;exitDy=0;strokeWidth=4;fontColor=#000000;" parent="1" source="oYlRctocb77fKKuBrY3P-13" target="9ELfS6WFHughq5BFfpC6-15" edge="1">
          <mxGeometry width="50" height="50" relative="1" as="geometry">
            <mxPoint x="295" y="680" as="sourcePoint" />
            <mxPoint y="680" as="targetPoint" />
          </mxGeometry>
        </mxCell>
        <mxCell id="9ELfS6WFHughq5BFfpC6-15" value="" style="ellipse;whiteSpace=wrap;html=1;aspect=fixed;fillColor=#000000;strokeWidth=4;strokeColor=#000000;fontColor=#000000;" parent="1" vertex="1">
          <mxGeometry x="2" y="670" width="20" height="20" as="geometry" />
        </mxCell>
        <mxCell id="9ELfS6WFHughq5BFfpC6-20" value="" style="endArrow=none;html=1;rounded=0;strokeWidth=4;strokeColor=#000000;fontColor=#000000;" parent="1" edge="1">
          <mxGeometry width="50" height="50" relative="1" as="geometry">
            <mxPoint x="90" y="930" as="sourcePoint" />
            <mxPoint x="90" y="359" as="targetPoint" />
          </mxGeometry>
        </mxCell>
        <mxCell id="9ELfS6WFHughq5BFfpC6-21" value="" style="endArrow=none;html=1;rounded=0;strokeWidth=4;strokeColor=#000000;fontColor=#000000;" parent="1" edge="1">
          <mxGeometry width="50" height="50" relative="1" as="geometry">
            <mxPoint x="110" y="928" as="sourcePoint" />
            <mxPoint x="70" y="928" as="targetPoint" />
          </mxGeometry>
        </mxCell>
        <mxCell id="9ELfS6WFHughq5BFfpC6-22" value="" style="endArrow=none;html=1;rounded=0;strokeWidth=4;strokeColor=#000000;fontColor=#000000;" parent="1" edge="1">
          <mxGeometry width="50" height="50" relative="1" as="geometry">
            <mxPoint x="110" y="948" as="sourcePoint" />
            <mxPoint x="70" y="948" as="targetPoint" />
          </mxGeometry>
        </mxCell>
        <mxCell id="9ELfS6WFHughq5BFfpC6-23" value="" style="endArrow=none;html=1;rounded=0;strokeWidth=4;strokeColor=#000000;fontColor=#000000;" parent="1" edge="1">
          <mxGeometry width="50" height="50" relative="1" as="geometry">
            <mxPoint x="90" y="1000" as="sourcePoint" />
            <mxPoint x="90" y="950" as="targetPoint" />
          </mxGeometry>
        </mxCell>
        <mxCell id="9ELfS6WFHughq5BFfpC6-26" value="&lt;font style=&quot;font-size: 50px;&quot;&gt;V&lt;sub&gt;H&lt;/sub&gt;&lt;/font&gt;" style="text;html=1;align=center;verticalAlign=middle;resizable=0;points=[];autosize=1;strokeColor=none;fillColor=none;fontColor=#000000;" parent="1" vertex="1">
          <mxGeometry x="105" y="290" width="90" height="80" as="geometry" />
        </mxCell>
        <mxCell id="9ELfS6WFHughq5BFfpC6-28" value="&lt;font style=&quot;font-size: 50px;&quot;&gt;V&lt;sub&gt;L&lt;/sub&gt;&lt;/font&gt;" style="text;html=1;align=center;verticalAlign=middle;resizable=0;points=[];autosize=1;strokeColor=none;fillColor=none;fontColor=#000000;" parent="1" vertex="1">
          <mxGeometry x="110" y="565" width="80" height="80" as="geometry" />
        </mxCell>
        <mxCell id="9ELfS6WFHughq5BFfpC6-157" value="" style="endArrow=none;html=1;rounded=0;strokeWidth=4;strokeColor=#000000;fontColor=#000000;" parent="1" edge="1">
          <mxGeometry width="50" height="50" relative="1" as="geometry">
            <mxPoint x="165" y="1030" as="sourcePoint" />
            <mxPoint x="225" y="1030" as="targetPoint" />
          </mxGeometry>
        </mxCell>
        <mxCell id="9ELfS6WFHughq5BFfpC6-158" value="" style="endArrow=none;html=1;rounded=0;strokeWidth=4;strokeColor=#000000;fontColor=#000000;" parent="1" edge="1">
          <mxGeometry width="50" height="50" relative="1" as="geometry">
            <mxPoint x="220" y="1039" as="sourcePoint" />
            <mxPoint x="170" y="1039" as="targetPoint" />
          </mxGeometry>
        </mxCell>
        <mxCell id="9ELfS6WFHughq5BFfpC6-159" value="" style="endArrow=none;html=1;rounded=0;strokeWidth=4;strokeColor=#000000;fontColor=#000000;" parent="1" edge="1">
          <mxGeometry width="50" height="50" relative="1" as="geometry">
            <mxPoint x="210" y="1049" as="sourcePoint" />
            <mxPoint x="180" y="1049" as="targetPoint" />
          </mxGeometry>
        </mxCell>
        <mxCell id="9ELfS6WFHughq5BFfpC6-160" value="" style="endArrow=none;html=1;rounded=0;strokeWidth=4;strokeColor=#000000;entryX=0.5;entryY=1;entryDx=0;entryDy=0;fontColor=#000000;" parent="1" target="oYlRctocb77fKKuBrY3P-43" edge="1">
          <mxGeometry width="50" height="50" relative="1" as="geometry">
            <mxPoint x="195" y="1032" as="sourcePoint" />
            <mxPoint x="230" y="1020" as="targetPoint" />
          </mxGeometry>
        </mxCell>
        <mxCell id="9ELfS6WFHughq5BFfpC6-161" value="&lt;font&gt;&lt;span style=&quot;font-size: 50px;&quot;&gt;GND&lt;/span&gt;&lt;/font&gt;" style="text;html=1;align=center;verticalAlign=middle;resizable=0;points=[];autosize=1;strokeColor=none;fillColor=none;fontColor=#000000;" parent="1" vertex="1">
          <mxGeometry x="130" y="1050" width="130" height="70" as="geometry" />
        </mxCell>
        <mxCell id="9ELfS6WFHughq5BFfpC6-163" value="" style="endArrow=none;html=1;rounded=0;strokeWidth=4;strokeColor=#000000;exitX=0.5;exitY=0;exitDx=0;exitDy=0;fontColor=#000000;" parent="1" source="9ELfS6WFHughq5BFfpC6-5" edge="1">
          <mxGeometry width="50" height="50" relative="1" as="geometry">
            <mxPoint x="10" y="470" as="sourcePoint" />
            <mxPoint x="195" y="50" as="targetPoint" />
          </mxGeometry>
        </mxCell>
        <mxCell id="9ELfS6WFHughq5BFfpC6-165" value="" style="endArrow=none;html=1;rounded=0;strokeWidth=4;strokeColor=#000000;fontColor=#000000;" parent="1" edge="1">
          <mxGeometry width="50" height="50" relative="1" as="geometry">
            <mxPoint x="220" y="50" as="sourcePoint" />
            <mxPoint x="170" y="50" as="targetPoint" />
          </mxGeometry>
        </mxCell>
        <mxCell id="9ELfS6WFHughq5BFfpC6-166" value="&lt;font style=&quot;font-size: 50px;&quot;&gt;V&lt;sub&gt;CC&lt;/sub&gt;&lt;/font&gt;" style="text;html=1;align=center;verticalAlign=middle;resizable=0;points=[];autosize=1;strokeColor=none;fillColor=none;fontColor=#000000;" parent="1" vertex="1">
          <mxGeometry x="42" width="120" height="80" as="geometry" />
        </mxCell>
        <mxCell id="rsWcSZFI2ZlMxmA-CvCg-1" value="" style="endArrow=none;html=1;rounded=0;strokeWidth=4;strokeColor=#000000;" parent="1" edge="1">
          <mxGeometry width="50" height="50" relative="1" as="geometry">
            <mxPoint x="11.170000000000002" y="810" as="sourcePoint" />
            <mxPoint x="12" y="1000" as="targetPoint" />
          </mxGeometry>
        </mxCell>
        <mxCell id="rsWcSZFI2ZlMxmA-CvCg-2" value="" style="endArrow=none;html=1;rounded=0;strokeWidth=4;strokeColor=#000000;entryX=0.5;entryY=1;entryDx=0;entryDy=0;" parent="1" target="9ELfS6WFHughq5BFfpC6-15" edge="1">
          <mxGeometry width="50" height="50" relative="1" as="geometry">
            <mxPoint x="12" y="790.5152994791666" as="sourcePoint" />
            <mxPoint x="30" y="700" as="targetPoint" />
          </mxGeometry>
        </mxCell>
        <mxCell id="rsWcSZFI2ZlMxmA-CvCg-3" value="" style="group;strokeColor=#FFFFFF;container=0;" parent="1" vertex="1" connectable="0">
          <mxGeometry x="-18" y="789" width="60" height="22" as="geometry" />
        </mxCell>
        <mxCell id="rsWcSZFI2ZlMxmA-CvCg-6" value="" style="rounded=0;whiteSpace=wrap;html=1;direction=south;strokeWidth=6;strokeColor=#000000;" parent="1" vertex="1">
          <mxGeometry x="-260" y="460" width="40" height="80" as="geometry" />
        </mxCell>
        <mxCell id="rsWcSZFI2ZlMxmA-CvCg-7" value="" style="endArrow=none;html=1;rounded=0;strokeWidth=4;entryX=0;entryY=0.5;entryDx=0;entryDy=0;strokeColor=#000000;" parent="1" target="rsWcSZFI2ZlMxmA-CvCg-6" edge="1">
          <mxGeometry width="50" height="50" relative="1" as="geometry">
            <mxPoint x="-240" y="80" as="sourcePoint" />
            <mxPoint x="-240" y="450" as="targetPoint" />
          </mxGeometry>
        </mxCell>
        <mxCell id="rsWcSZFI2ZlMxmA-CvCg-9" value="" style="endArrow=none;html=1;rounded=0;strokeWidth=4;strokeColor=#000000;entryX=0;entryY=0.5;entryDx=0;entryDy=0;" parent="1" target="9ELfS6WFHughq5BFfpC6-5" edge="1">
          <mxGeometry width="50" height="50" relative="1" as="geometry">
            <mxPoint x="-242" y="79.47" as="sourcePoint" />
            <mxPoint x="163" y="79.47" as="targetPoint" />
          </mxGeometry>
        </mxCell>
        <mxCell id="rsWcSZFI2ZlMxmA-CvCg-10" value="" style="endArrow=none;html=1;rounded=0;strokeWidth=4;strokeColor=#000000;entryX=0.5;entryY=1;entryDx=0;entryDy=0;" parent="1" edge="1">
          <mxGeometry width="50" height="50" relative="1" as="geometry">
            <mxPoint x="-240.59" y="881" as="sourcePoint" />
            <mxPoint x="-240.59" y="690" as="targetPoint" />
            <Array as="points">
              <mxPoint x="-240.59" y="881" />
            </Array>
          </mxGeometry>
        </mxCell>
        <mxCell id="rsWcSZFI2ZlMxmA-CvCg-11" value="" style="endArrow=none;html=1;rounded=0;strokeWidth=4;strokeColor=#000000;entryX=1;entryY=0.5;entryDx=0;entryDy=0;exitX=0.5;exitY=0;exitDx=0;exitDy=0;" parent="1" source="rsWcSZFI2ZlMxmA-CvCg-12" target="rsWcSZFI2ZlMxmA-CvCg-6" edge="1">
          <mxGeometry width="50" height="50" relative="1" as="geometry">
            <mxPoint x="22" y="800.5152994791666" as="sourcePoint" />
            <mxPoint x="22" y="700" as="targetPoint" />
          </mxGeometry>
        </mxCell>
        <mxCell id="rsWcSZFI2ZlMxmA-CvCg-12" value="" style="ellipse;whiteSpace=wrap;html=1;aspect=fixed;fillColor=#000000;strokeWidth=4;strokeColor=#000000;fontColor=#000000;" parent="1" vertex="1">
          <mxGeometry x="-250" y="670" width="20" height="20" as="geometry" />
        </mxCell>
        <mxCell id="rsWcSZFI2ZlMxmA-CvCg-13" value="" style="rounded=0;whiteSpace=wrap;html=1;direction=south;strokeWidth=6;rotation=90;strokeColor=#000000;" parent="1" vertex="1">
          <mxGeometry x="-140" y="640" width="40" height="80" as="geometry" />
        </mxCell>
        <mxCell id="rsWcSZFI2ZlMxmA-CvCg-14" value="" style="endArrow=none;html=1;rounded=0;strokeWidth=4;exitX=1;exitY=0.5;exitDx=0;exitDy=0;entryX=1;entryY=0.5;entryDx=0;entryDy=0;strokeColor=#000000;" parent="1" source="rsWcSZFI2ZlMxmA-CvCg-13" target="rsWcSZFI2ZlMxmA-CvCg-12" edge="1">
          <mxGeometry width="50" height="50" relative="1" as="geometry">
            <mxPoint x="-180" y="678" as="sourcePoint" />
            <mxPoint x="-200" y="710" as="targetPoint" />
          </mxGeometry>
        </mxCell>
        <mxCell id="rsWcSZFI2ZlMxmA-CvCg-15" value="&lt;font style=&quot;font-size: 50px;&quot;&gt;R&lt;sub&gt;t&lt;/sub&gt;&lt;/font&gt;" style="text;html=1;align=center;verticalAlign=middle;resizable=0;points=[];autosize=1;strokeColor=none;fillColor=none;strokeWidth=4;fontColor=#000000;" parent="1" vertex="1">
          <mxGeometry x="105" y="720" width="70" height="80" as="geometry" />
        </mxCell>
        <mxCell id="rsWcSZFI2ZlMxmA-CvCg-16" value="&lt;font style=&quot;font-size: 50px;&quot;&gt;R&lt;sub&gt;t&lt;/sub&gt;&lt;/font&gt;" style="text;html=1;align=center;verticalAlign=middle;resizable=0;points=[];autosize=1;strokeColor=none;fillColor=none;strokeWidth=4;fontColor=#000000;" parent="1" vertex="1">
          <mxGeometry x="105" y="440" width="70" height="80" as="geometry" />
        </mxCell>
        <mxCell id="rsWcSZFI2ZlMxmA-CvCg-17" value="&lt;font style=&quot;font-size: 50px;&quot;&gt;C&lt;sub&gt;2&lt;/sub&gt;&lt;/font&gt;" style="text;html=1;align=center;verticalAlign=middle;resizable=0;points=[];autosize=1;strokeColor=none;fillColor=none;strokeWidth=4;fontColor=#000000;" parent="1" vertex="1">
          <mxGeometry x="100" y="901" width="80" height="80" as="geometry" />
        </mxCell>
        <mxCell id="rsWcSZFI2ZlMxmA-CvCg-18" value="&lt;font style=&quot;font-size: 50px;&quot;&gt;C&lt;sub&gt;1&lt;/sub&gt;&lt;/font&gt;" style="text;html=1;align=center;verticalAlign=middle;resizable=0;points=[];autosize=1;strokeColor=none;fillColor=none;strokeWidth=4;fontColor=#000000;" parent="1" vertex="1">
          <mxGeometry x="-95" y="780" width="80" height="80" as="geometry" />
        </mxCell>
        <mxCell id="rsWcSZFI2ZlMxmA-CvCg-19" value="&lt;font style=&quot;font-size: 50px;&quot;&gt;R&lt;sub&gt;1&lt;/sub&gt;&lt;/font&gt;" style="text;html=1;align=center;verticalAlign=middle;resizable=0;points=[];autosize=1;strokeColor=none;fillColor=none;strokeWidth=4;fontColor=#000000;" parent="1" vertex="1">
          <mxGeometry x="-345" y="460" width="80" height="80" as="geometry" />
        </mxCell>
        <mxCell id="rsWcSZFI2ZlMxmA-CvCg-20" value="&lt;font style=&quot;font-size: 50px;&quot;&gt;R&lt;sub&gt;2&lt;/sub&gt;&lt;/font&gt;" style="text;html=1;align=center;verticalAlign=middle;resizable=0;points=[];autosize=1;strokeColor=none;fillColor=none;strokeWidth=4;fontColor=#000000;" parent="1" vertex="1">
          <mxGeometry x="-160" y="580" width="80" height="80" as="geometry" />
        </mxCell>
        <mxCell id="BHB_RNbIRPm3-JZHGC25-81" value="&lt;font style=&quot;font-size: 50px;&quot;&gt;V&lt;sub&gt;i&lt;/sub&gt;&lt;/font&gt;" style="text;html=1;align=center;verticalAlign=middle;resizable=0;points=[];autosize=1;strokeColor=none;fillColor=none;strokeWidth=4;fontColor=#000000;" parent="1" vertex="1">
          <mxGeometry x="-50" y="682" width="61" height="81" as="geometry" />
        </mxCell>
        <mxCell id="BHB_RNbIRPm3-JZHGC25-181" value="&lt;font style=&quot;font-size: 50px;&quot;&gt;V&lt;sub&gt;o&lt;/sub&gt;&lt;/font&gt;" style="text;html=1;align=center;verticalAlign=middle;resizable=0;points=[];autosize=1;strokeColor=none;fillColor=none;strokeWidth=4;fontColor=#000000;" parent="1" vertex="1">
          <mxGeometry x="690" y="319.5" width="75" height="81" as="geometry" />
        </mxCell>
        <mxCell id="rsWcSZFI2ZlMxmA-CvCg-4" value="" style="endArrow=none;html=1;rounded=0;strokeWidth=4;strokeColor=#000000;" parent="1" edge="1">
          <mxGeometry width="50" height="50" relative="1" as="geometry">
            <mxPoint x="-18" y="789" as="sourcePoint" />
            <mxPoint x="42" y="789" as="targetPoint" />
          </mxGeometry>
        </mxCell>
        <mxCell id="rsWcSZFI2ZlMxmA-CvCg-5" value="" style="endArrow=none;html=1;rounded=0;strokeWidth=4;strokeColor=#000000;" parent="1" edge="1">
          <mxGeometry width="50" height="50" relative="1" as="geometry">
            <mxPoint x="-18" y="810" as="sourcePoint" />
            <mxPoint x="42" y="810" as="targetPoint" />
          </mxGeometry>
        </mxCell>
        <mxCell id="-57o9uocHF-z8NXYsJxn-1" value="" style="ellipse;whiteSpace=wrap;html=1;aspect=fixed;fillColor=#0000FF;strokeWidth=4;strokeColor=none;fontColor=#000000;" vertex="1" parent="1">
          <mxGeometry x="525" y="70" width="20" height="20" as="geometry" />
        </mxCell>
        <mxCell id="-57o9uocHF-z8NXYsJxn-7" value="" style="endArrow=none;html=1;rounded=0;strokeWidth=4;strokeColor=#0000FF;" edge="1" parent="1">
          <mxGeometry width="50" height="50" relative="1" as="geometry">
            <mxPoint x="920" y="282" as="sourcePoint" />
            <mxPoint x="840" y="282" as="targetPoint" />
            <Array as="points" />
          </mxGeometry>
        </mxCell>
        <mxCell id="-57o9uocHF-z8NXYsJxn-8" value="" style="endArrow=classic;html=1;rounded=0;strokeWidth=4;strokeColor=#FF0000;" edge="1" parent="1">
          <mxGeometry width="50" height="50" relative="1" as="geometry">
            <mxPoint x="936" y="249.5" as="sourcePoint" />
            <mxPoint x="980" y="230" as="targetPoint" />
          </mxGeometry>
        </mxCell>
        <mxCell id="-57o9uocHF-z8NXYsJxn-9" value="" style="endArrow=classic;html=1;rounded=0;strokeWidth=4;strokeColor=#FF0000;" edge="1" parent="1">
          <mxGeometry width="50" height="50" relative="1" as="geometry">
            <mxPoint x="936" y="269.5" as="sourcePoint" />
            <mxPoint x="980" y="250" as="targetPoint" />
          </mxGeometry>
        </mxCell>
        <mxCell id="-57o9uocHF-z8NXYsJxn-10" value="" style="verticalLabelPosition=bottom;verticalAlign=top;html=1;shape=mxgraph.basic.acute_triangle;dx=0.5;rotation=90;strokeWidth=4;fillColor=#FF0000;direction=south;strokeColor=#0000FF;" vertex="1" parent="1">
          <mxGeometry x="853.5" y="215" width="53" height="75" as="geometry" />
        </mxCell>
        <mxCell id="-57o9uocHF-z8NXYsJxn-2" value="" style="endArrow=none;html=1;rounded=0;strokeWidth=4;strokeColor=#0000FF;fontColor=#000000;entryX=1;entryY=0.5;entryDx=0;entryDy=0;exitX=0;exitY=0.5;exitDx=0;exitDy=0;" edge="1" parent="1" source="-57o9uocHF-z8NXYsJxn-18" target="-57o9uocHF-z8NXYsJxn-1">
          <mxGeometry width="50" height="50" relative="1" as="geometry">
            <mxPoint x="920" y="100" as="sourcePoint" />
            <mxPoint x="570" y="80" as="targetPoint" />
            <Array as="points">
              <mxPoint x="880" y="80" />
            </Array>
          </mxGeometry>
        </mxCell>
        <mxCell id="-57o9uocHF-z8NXYsJxn-11" value="" style="ellipse;whiteSpace=wrap;html=1;aspect=fixed;fillColor=#0000FF;strokeWidth=4;strokeColor=none;fontColor=#000000;" vertex="1" parent="1">
          <mxGeometry x="870" y="310" width="20" height="20" as="geometry" />
        </mxCell>
        <mxCell id="-57o9uocHF-z8NXYsJxn-15" value="" style="endArrow=none;html=1;rounded=0;strokeWidth=4;fontColor=#000000;strokeColor=#0000FF;entryX=0.5;entryY=0;entryDx=0;entryDy=0;exitX=0;exitY=0;exitDx=37.5;exitDy=0;exitPerimeter=0;" edge="1" parent="1" source="-57o9uocHF-z8NXYsJxn-10" target="-57o9uocHF-z8NXYsJxn-11">
          <mxGeometry width="50" height="50" relative="1" as="geometry">
            <mxPoint x="900" y="300" as="sourcePoint" />
            <mxPoint x="607" y="330" as="targetPoint" />
          </mxGeometry>
        </mxCell>
        <mxCell id="-57o9uocHF-z8NXYsJxn-16" value="" style="endArrow=none;html=1;rounded=0;strokeWidth=4;fontColor=#000000;strokeColor=#0000FF;exitX=0.5;exitY=1;exitDx=0;exitDy=0;entryX=0;entryY=0.5;entryDx=0;entryDy=0;" edge="1" parent="1" source="-57o9uocHF-z8NXYsJxn-11" target="-57o9uocHF-z8NXYsJxn-21">
          <mxGeometry width="50" height="50" relative="1" as="geometry">
            <mxPoint x="890" y="292" as="sourcePoint" />
            <mxPoint x="880" y="390" as="targetPoint" />
          </mxGeometry>
        </mxCell>
        <mxCell id="-57o9uocHF-z8NXYsJxn-18" value="" style="rounded=0;whiteSpace=wrap;html=1;direction=south;strokeWidth=6;strokeColor=#0000FF;" vertex="1" parent="1">
          <mxGeometry x="860" y="100" width="40" height="80" as="geometry" />
        </mxCell>
        <mxCell id="-57o9uocHF-z8NXYsJxn-19" value="&lt;font style=&quot;font-size: 50px;&quot;&gt;R&lt;sub&gt;3&lt;/sub&gt;&lt;/font&gt;" style="text;html=1;align=center;verticalAlign=middle;resizable=0;points=[];autosize=1;strokeColor=none;fillColor=none;strokeWidth=4;fontColor=#0000FF;" vertex="1" parent="1">
          <mxGeometry x="780" y="100" width="80" height="80" as="geometry" />
        </mxCell>
        <mxCell id="-57o9uocHF-z8NXYsJxn-20" value="" style="endArrow=none;html=1;rounded=0;strokeWidth=4;fontColor=#000000;strokeColor=#0000FF;exitX=1;exitY=0.5;exitDx=0;exitDy=0;entryX=0;entryY=0;entryDx=37.5;entryDy=0;entryPerimeter=0;" edge="1" parent="1" source="-57o9uocHF-z8NXYsJxn-18" target="-57o9uocHF-z8NXYsJxn-10">
          <mxGeometry width="50" height="50" relative="1" as="geometry">
            <mxPoint x="890" y="292" as="sourcePoint" />
            <mxPoint x="890" y="320" as="targetPoint" />
          </mxGeometry>
        </mxCell>
        <mxCell id="-57o9uocHF-z8NXYsJxn-21" value="" style="rounded=0;whiteSpace=wrap;html=1;direction=south;strokeWidth=6;strokeColor=#0000FF;" vertex="1" parent="1">
          <mxGeometry x="860" y="540" width="40" height="80" as="geometry" />
        </mxCell>
        <mxCell id="-57o9uocHF-z8NXYsJxn-22" value="&lt;font style=&quot;font-size: 50px;&quot;&gt;R&lt;sub&gt;4&lt;/sub&gt;&lt;/font&gt;" style="text;html=1;align=center;verticalAlign=middle;resizable=0;points=[];autosize=1;strokeColor=none;fillColor=none;strokeWidth=4;fontColor=#0000FF;" vertex="1" parent="1">
          <mxGeometry x="770" y="550" width="80" height="80" as="geometry" />
        </mxCell>
        <mxCell id="-57o9uocHF-z8NXYsJxn-23" value="" style="endArrow=none;html=1;rounded=0;strokeWidth=4;fontColor=#000000;strokeColor=#0000FF;exitX=0;exitY=0;exitDx=37.5;exitDy=0;exitPerimeter=0;" edge="1" parent="1" source="-57o9uocHF-z8NXYsJxn-29">
          <mxGeometry width="50" height="50" relative="1" as="geometry">
            <mxPoint x="940" y="870" as="sourcePoint" />
            <mxPoint x="880" y="1000" as="targetPoint" />
          </mxGeometry>
        </mxCell>
        <mxCell id="-57o9uocHF-z8NXYsJxn-24" value="" style="endArrow=none;html=1;rounded=0;strokeWidth=4;fontColor=#000000;strokeColor=#0000FF;exitX=1;exitY=0.5;exitDx=0;exitDy=0;" edge="1" parent="1" source="-57o9uocHF-z8NXYsJxn-25">
          <mxGeometry width="50" height="50" relative="1" as="geometry">
            <mxPoint x="390" y="1001" as="sourcePoint" />
            <mxPoint x="882" y="1001" as="targetPoint" />
          </mxGeometry>
        </mxCell>
        <mxCell id="-57o9uocHF-z8NXYsJxn-25" value="" style="ellipse;whiteSpace=wrap;html=1;aspect=fixed;fillColor=#0000FF;strokeWidth=4;strokeColor=none;fontColor=#000000;" vertex="1" parent="1">
          <mxGeometry x="345" y="991" width="20" height="20" as="geometry" />
        </mxCell>
        <mxCell id="-57o9uocHF-z8NXYsJxn-26" value="" style="endArrow=none;html=1;rounded=0;strokeWidth=4;strokeColor=#0000FF;" edge="1" parent="1">
          <mxGeometry width="50" height="50" relative="1" as="geometry">
            <mxPoint x="920" y="817" as="sourcePoint" />
            <mxPoint x="840" y="817" as="targetPoint" />
            <Array as="points" />
          </mxGeometry>
        </mxCell>
        <mxCell id="-57o9uocHF-z8NXYsJxn-27" value="" style="endArrow=classic;html=1;rounded=0;strokeWidth=4;strokeColor=#00FF00;" edge="1" parent="1">
          <mxGeometry width="50" height="50" relative="1" as="geometry">
            <mxPoint x="936" y="784.5" as="sourcePoint" />
            <mxPoint x="980" y="765" as="targetPoint" />
          </mxGeometry>
        </mxCell>
        <mxCell id="-57o9uocHF-z8NXYsJxn-28" value="" style="endArrow=classic;html=1;rounded=0;strokeWidth=4;strokeColor=#00FF00;" edge="1" parent="1">
          <mxGeometry width="50" height="50" relative="1" as="geometry">
            <mxPoint x="936" y="804.5" as="sourcePoint" />
            <mxPoint x="980" y="785" as="targetPoint" />
          </mxGeometry>
        </mxCell>
        <mxCell id="-57o9uocHF-z8NXYsJxn-29" value="" style="verticalLabelPosition=bottom;verticalAlign=top;html=1;shape=mxgraph.basic.acute_triangle;dx=0.5;rotation=90;strokeWidth=4;fillColor=#00FF00;direction=south;strokeColor=#0000FF;" vertex="1" parent="1">
          <mxGeometry x="853.5" y="750" width="53" height="75" as="geometry" />
        </mxCell>
        <mxCell id="-57o9uocHF-z8NXYsJxn-17" value="" style="endArrow=none;html=1;rounded=0;strokeWidth=4;fontColor=#000000;strokeColor=#0000FF;exitX=1;exitY=0.5;exitDx=0;exitDy=0;entryX=0;entryY=0;entryDx=37.5;entryDy=0;entryPerimeter=0;" edge="1" parent="1" source="-57o9uocHF-z8NXYsJxn-21" target="-57o9uocHF-z8NXYsJxn-29">
          <mxGeometry width="50" height="50" relative="1" as="geometry">
            <mxPoint x="980" y="360" as="sourcePoint" />
            <mxPoint x="880" y="760" as="targetPoint" />
          </mxGeometry>
        </mxCell>
        <mxCell id="-57o9uocHF-z8NXYsJxn-31" value="&lt;font style=&quot;font-size: 50px;&quot;&gt;LED&lt;sub&gt;1&lt;/sub&gt;&lt;/font&gt;" style="text;html=1;align=center;verticalAlign=middle;resizable=0;points=[];autosize=1;strokeColor=none;fillColor=none;strokeWidth=4;fontColor=#0000FF;" vertex="1" parent="1">
          <mxGeometry x="710" y="215" width="140" height="80" as="geometry" />
        </mxCell>
        <mxCell id="-57o9uocHF-z8NXYsJxn-32" value="&lt;font style=&quot;font-size: 50px;&quot;&gt;LED&lt;sub&gt;2&lt;/sub&gt;&lt;/font&gt;" style="text;html=1;align=center;verticalAlign=middle;resizable=0;points=[];autosize=1;strokeColor=none;fillColor=none;strokeWidth=4;fontColor=#0000FF;" vertex="1" parent="1">
          <mxGeometry x="710" y="745" width="140" height="80" as="geometry" />
        </mxCell>
      </root>
    </mxGraphModel>
  </diagram>
</mxfile>
